<svg width="505" height="490" viewBox="0 0 505 490" fill="none" xmlns="http://www.w3.org/2000/svg">
<g clip-path="url(#clip0_16_76)">
<path d="M0.885986 142.532L250.728 0L505 148.695L476.649 165.644L250.728 30.8176L33.6667 161.792L0.885986 142.532Z" fill="#5CB8FF"/>
<path d="M70.8772 184.906L249.842 75.5029L438.553 184.906L408.43 202.626L249.842 109.402L99.2278 202.626L70.8772 184.906Z" fill="#5CB8FF"/>
<path d="M137.324 224.968L250.728 154.859L369.447 224.968L339.324 241.918L250.728 187.987L165.676 241.918L137.324 224.968Z" fill="#5CB8FF"/>
<path d="M0 178.742V143.302L249.842 292.767L505 148.695V184.135L249.842 327.437L0 178.742Z" fill="#00367D"/>
<path d="M0.885986 261.179V226.509L249.842 374.434L461.588 251.934V286.603L249.842 409.103L0.885986 261.179Z" fill="#00367D"/>
<path d="M0.885986 342.075V306.635L250.728 454.56L380.965 382.139V416.808L250.728 490L0.885986 342.075Z" fill="#00367D"/>
</g>
<defs>
<clipPath id="clip0_16_76">
<rect width="505" height="490" fill="white"/>
</clipPath>
</defs>
</svg>
